<svg xmlns="http://www.w3.org/2000/svg" width="100" height="100" viewBox="0 0 100 100">
  <!-- Luxury Hotel Logo -->
  <style>
    .primary { fill: #d4af37; }
    .secondary { fill: #f8f9fa; }
    .accent { fill: #6c757d; }
  </style>
  
  <!-- Hotel Building -->
  <rect x="20" y="25" width="60" height="60" rx="2" class="secondary" />
  
  <!-- Windows -->
  <rect x="30" y="35" width="10" height="10" class="accent" />
  <rect x="45" y="35" width="10" height="10" class="accent" />
  <rect x="60" y="35" width="10" height="10" class="accent" />
  
  <rect x="30" y="50" width="10" height="10" class="accent" />
  <rect x="45" y="50" width="10" height="10" class="accent" />
  <rect x="60" y="50" width="10" height="10" class="accent" />
  
  <!-- Entrance -->
  <rect x="40" y="65" width="20" height="20" class="accent" />
  
  <!-- Roof/Crown -->
  <path d="M15 25 L50 10 L85 25 Z" class="primary" />
  
  <!-- Stars (Luxury Indicator) -->
  <g class="primary">
    <polygon points="30,85 32,90 37,90 33,94 35,99 30,96 25,99 27,94 23,90 28,90" />
    <polygon points="50,85 52,90 57,90 53,94 55,99 50,96 45,99 47,94 43,90 48,90" />
    <polygon points="70,85 72,90 77,90 73,94 75,99 70,96 65,99 67,94 63,90 68,90" />
  </g>
</svg>
